<svg width="960" height="240" viewBox="0 0 960 240" fill="none" xmlns="http://www.w3.org/2000/svg">
  <rect width="960" height="240" rx="28" fill="#111827"/>
  <rect x="36" y="36" width="168" height="168" rx="24" fill="#1F2937"/>
  <path d="M78 84L102 156L126 108L150 156L174 84" stroke="#93C5FD" stroke-width="18" stroke-linecap="round" stroke-linejoin="round"/>
  <circle cx="132" cy="78" r="14" fill="#F9A8D4"/>
  <path d="M258 88H304L340 160L376 88H422L370 184H310L258 88Z" fill="#F9FAFB"/>
  <path d="M454 88H504V184H454V88Z" fill="#F9FAFB"/>
  <path d="M534 88H584V184H534V88Z" fill="#F9FAFB"/>
  <path d="M612 88H780V126H720V184H672V126H612V88Z" fill="#F9FAFB"/>
  <path d="M810 88H860V146H924V184H810V88Z" fill="#F9FAFB"/>
  <path d="M534 70C534 58.9543 542.954 50 554 50H564C575.046 50 584 58.9543 584 70V72H534V70Z" fill="#34D399"/>
  <path d="M454 70C454 58.9543 462.954 50 474 50H484C495.046 50 504 58.9543 504 70V72H454V70Z" fill="#FDE68A"/>
  <text x="258" y="214" fill="#9CA3AF" font-family="monospace" font-size="24">terminal wallpaper picker for Hyprland</text>
</svg>
